<?xml version="1.0" standalone="no"?><!DOCTYPE svg PUBLIC "-//W3C//DTD SVG 1.1//EN" "http://www.w3.org/Graphics/SVG/1.1/DTD/svg11.dtd"><svg t="1566987330982" class="icon" viewBox="0 0 1024 1024" version="1.1" xmlns="http://www.w3.org/2000/svg" p-id="4470" xmlns:xlink="http://www.w3.org/1999/xlink" width="200" height="200"><defs><style type="text/css"></style></defs><path d="M213.333 416a32 32 0 1 0 64 0 32 32 0 1 0-64 0z" p-id="4471" fill="#1296db"></path><path d="M981.333 231.04a21.333 21.333 0 0 0-24.746-17.707 21.333 21.333 0 0 0-17.92 24.747A52.053 52.053 0 0 1 896 297.387 233.387 233.387 0 0 0 746.667 246.4h-291.84l-101.12-71.893A21.333 21.333 0 0 0 320 192v42.667c-115.2 7.466-193.493 75.52-209.92 182.613-35.84 4.693-67.413 21.12-67.413 52.053v85.334c0 35.84 50.773 75.733 85.333 75.733h14.08a275.84 275.84 0 0 0 207.787 121.813L384 814.72a43.733 43.733 0 0 0 42.667 37.547 45.44 45.44 0 0 0 42.666-39.894L503.04 758.4h341.333L896 815.36a43.947 43.947 0 0 0 42.667 35.627 40.533 40.533 0 0 0 42.666-40.32v-320a256 256 0 0 0-51.626-160.214 93.653 93.653 0 0 0 51.626-99.413z m-42.666 574.933a21.333 21.333 0 0 0-5.76-14.506l-64-68.907a21.333 21.333 0 0 0-15.574-6.827H490.667a21.333 21.333 0 0 0-18.134 10.027l-42.666 68.267a21.333 21.333 0 0 0-3.2 11.306 21.333 21.333 0 0 0-2.56-8.106l-42.667-77.014a21.333 21.333 0 0 0-18.773-10.24 234.667 234.667 0 0 1-190.507-112.64 21.333 21.333 0 0 0-18.133-10.24H128a64 64 0 0 1-42.667-32.426V470.4a72.107 72.107 0 0 1 43.947-10.667 21.333 21.333 0 0 0 21.333-19.626C162.773 293.12 288 277.333 341.333 277.333A21.333 21.333 0 0 0 362.667 256v-22.613l72.96 51.84a21.333 21.333 0 0 0 12.373 3.84h298.667c114.773 0 192 81.066 192 201.6v315.306z" p-id="4472" fill="#1296db"></path></svg>